<?xml version="1.0" standalone="no"?>
<!DOCTYPE svg PUBLIC "-//W3C//DTD SVG 20010904//EN"
 "http://www.w3.org/TR/2001/REC-SVG-20010904/DTD/svg10.dtd">
<svg version="1.0" xmlns="http://www.w3.org/2000/svg"
 width="360.000000pt" height="360.000000pt" viewBox="0 0 360.000000 360.000000"
 preserveAspectRatio="xMidYMid meet">

<g transform="translate(0.000000,360.000000) scale(0.100000,-0.100000)"
fill="#000000" stroke="none">
<path d="M1304 3584 c-17 -8 -40 -32 -52 -52 -19 -34 -602 -1388 -602 -1399 0
-2 19 -3 41 -1 l41 3 292 680 c160 374 295 686 299 693 5 6 20 12 35 12 15 0
189 -70 387 -155 198 -85 364 -155 370 -155 5 0 23 11 40 24 l30 24 -60 27
c-316 140 -739 315 -762 315 -15 0 -42 -7 -59 -16z"/>
<path d="M1509 3383 c-52 -53 -104 -76 -177 -77 l-64 -1 -249 -579 c-137 -319
-248 -581 -246 -582 2 -2 232 178 250 195 4 4 0 25 -9 47 -24 55 -22 158 3
214 26 59 83 114 152 148 48 23 68 27 146 27 60 0 111 -6 152 -19 l61 -19 214
170 213 170 -2 83 -2 83 -173 74 c-95 41 -187 80 -204 88 -31 13 -33 12 -65
-22z"/>
<path d="M2323 3273 c-22 -16 -356 -278 -741 -583 l-701 -555 59 -3 58 -3 144
114 c618 493 1234 976 1249 980 10 3 26 -1 37 -8 10 -8 134 -160 275 -339 179
-226 257 -332 257 -349 0 -20 -41 -57 -230 -207 -126 -100 -230 -183 -230
-186 0 -2 26 -4 58 -4 l57 1 195 155 c109 87 203 169 213 187 24 42 17 97 -19
145 -166 220 -521 655 -544 667 -44 23 -92 19 -137 -12z"/>
<path d="M2125 2982 c-61 -48 -327 -258 -590 -467 l-480 -380 279 -3 c154 -1
280 -1 282 1 2 2 -5 26 -16 53 -58 155 -18 317 98 394 97 64 204 67 325 7 157
-78 264 -260 243 -414 l-6 -43 90 0 90 0 169 135 170 135 -14 35 c-25 59 -19
135 15 200 l30 57 -136 171 c-86 109 -142 171 -153 170 -9 -1 -37 -7 -64 -14
-56 -15 -132 -1 -177 31 -15 11 -32 20 -37 20 -4 0 -58 -40 -118 -88z"/>
<path d="M1210 2608 c-16 -26 -27 -33 -51 -33 -20 0 -36 -7 -43 -18 -9 -15 -6
-22 16 -40 14 -12 28 -32 30 -44 3 -22 4 -22 43 9 22 17 53 51 68 76 l27 44
-22 18 c-32 27 -45 25 -68 -12z"/>
<path d="M1747 2482 c-15 -16 -15 -20 -2 -39 14 -20 13 -26 -7 -67 -19 -40
-20 -49 -9 -86 23 -76 84 -94 204 -59 81 23 117 -23 56 -73 l-33 -28 61 0 c52
0 63 3 75 23 25 38 29 74 12 116 -28 71 -82 86 -194 56 -66 -18 -90 -12 -90
20 0 26 31 55 80 75 34 14 35 18 18 55 -13 30 -32 32 -75 6 -31 -19 -31 -19
-49 0 -21 24 -27 24 -47 1z"/>
<path d="M432 2333 c-45 -22 -91 -69 -111 -113 -14 -31 -16 -140 -19 -1015 -2
-692 1 -995 9 -1033 14 -68 82 -144 144 -161 55 -15 2554 -15 2608 0 49 13
105 63 128 114 17 36 19 71 19 327 l0 287 -322 3 c-322 3 -323 3 -372 28 -105
54 -162 158 -154 279 8 110 69 195 173 243 48 22 62 23 363 26 l312 4 0 285 0
285 -27 50 c-19 34 -41 58 -72 76 l-46 27 -1282 5 -1282 5 -22 22 c-27 27 -29
75 -5 102 13 14 34 21 73 23 l55 3 29 68 c16 38 29 71 29 73 0 2 -44 4 -97 4
-70 0 -107 -5 -131 -17z m116 -465 c2 -9 -5 -19 -17 -23 -12 -3 -21 -13 -21
-21 0 -21 -34 -13 -38 8 -4 22 34 60 56 56 9 -2 18 -11 20 -20z m189 6 c8 -22
-14 -34 -68 -34 -51 0 -77 18 -57 38 19 19 117 15 125 -4z m220 0 c8 -22 -14
-34 -67 -34 -53 0 -75 12 -67 34 5 12 21 16 67 16 46 0 62 -4 67 -16z m220 0
c8 -22 -14 -34 -67 -34 -53 0 -75 12 -67 34 5 12 21 16 67 16 46 0 62 -4 67
-16z m212 3 c17 -21 -7 -37 -57 -37 -56 0 -88 16 -71 36 15 18 112 19 128 1z
m218 -3 c8 -22 -14 -34 -64 -34 -50 0 -73 8 -73 25 0 18 16 23 78 24 40 1 54
-3 59 -15z m207 10 c9 -3 16 -12 16 -19 0 -17 -23 -25 -73 -25 -50 0 -72 12
-64 34 5 12 20 16 56 16 27 0 56 -3 65 -6z m225 -7 c17 -22 -7 -37 -58 -37
-54 0 -76 12 -68 34 8 21 109 23 126 3z m218 -3 c8 -22 -14 -34 -68 -34 -30 0
-51 6 -60 16 -19 23 4 34 69 34 39 0 54 -4 59 -16z m220 0 c8 -22 -14 -34 -67
-34 -53 0 -75 12 -67 34 5 12 21 16 67 16 46 0 62 -4 67 -16z m212 7 c27 -18
-6 -41 -58 -41 -54 0 -76 12 -68 34 5 12 20 16 59 16 29 0 59 -4 67 -9z m218
-7 c8 -22 -14 -34 -68 -34 -51 0 -77 18 -57 38 19 19 117 15 125 -4z m115 4
c24 -19 33 -57 15 -64 -19 -7 -70 44 -63 62 7 17 27 18 48 2z m-2514 -202 c3
-61 1 -67 -15 -64 -14 2 -19 15 -21 57 -4 61 3 84 21 79 7 -3 13 -29 15 -72z
m2536 58 c3 -9 6 -38 6 -65 0 -36 -4 -51 -16 -56 -22 -8 -34 14 -34 64 0 50 8
73 25 73 7 0 16 -7 19 -16z m-2536 -271 c-2 -53 -6 -68 -18 -68 -11 0 -16 14
-18 54 -4 63 2 81 23 81 13 0 15 -11 13 -67z m2540 -1 c2 -50 0 -63 -14 -69
-22 -8 -34 13 -34 64 0 53 9 75 29 71 12 -2 17 -18 19 -66z m-2540 -219 c-2
-53 -6 -68 -18 -68 -12 0 -16 15 -18 68 -3 62 -1 67 18 67 19 0 21 -5 18 -67z
m0 -217 c3 -61 1 -67 -15 -64 -14 2 -19 15 -21 57 -4 61 3 84 21 79 7 -3 13
-29 15 -72z m2 -217 c0 -62 -2 -70 -17 -67 -14 2 -19 15 -21 57 -4 63 2 81 23
81 12 0 15 -14 15 -71z m-2 -216 c-2 -53 -6 -68 -18 -68 -11 0 -16 14 -18 54
-4 63 2 81 23 81 13 0 15 -11 13 -67z m2540 7 c3 -66 -8 -90 -32 -71 -10 9
-16 29 -16 56 0 56 8 77 29 73 12 -2 17 -17 19 -58z m-2540 -223 c3 -62 1 -67
-18 -67 -18 0 -20 6 -20 63 0 35 3 67 7 71 17 17 28 -6 31 -67z m2542 -4 c0
-40 -4 -55 -16 -60 -9 -3 -20 0 -25 8 -13 20 -11 103 3 117 21 21 38 -7 38
-65z m-2529 -152 c35 -36 37 -51 5 -51 -40 0 -73 50 -49 73 10 10 12 9 44 -22z
m2523 13 c10 -25 -20 -64 -49 -64 -28 0 -35 27 -10 36 8 3 17 14 20 25 8 23
31 25 39 3z m-2304 -44 c0 -18 -7 -20 -64 -20 -63 0 -84 9 -71 30 3 6 35 10
71 10 57 0 64 -2 64 -20z m218 -2 c3 -16 -5 -18 -62 -18 -36 0 -68 5 -71 10
-13 22 9 31 68 28 50 -2 62 -6 65 -20z m217 2 c0 -12 -15 -16 -67 -18 -53 -2
-68 0 -68 11 0 24 12 28 75 25 45 -2 60 -7 60 -18z m218 6 c9 -22 -2 -26 -68
-26 -66 0 -77 4 -68 26 7 20 129 20 136 0z m215 -8 c3 -16 -5 -18 -62 -18 -36
0 -68 5 -71 10 -13 22 9 31 68 28 50 -2 62 -6 65 -20z m220 0 c3 -16 -5 -18
-67 -18 -53 0 -71 3 -71 13 0 24 13 28 74 25 49 -2 61 -7 64 -20z m217 2 c0
-12 -15 -16 -67 -18 -53 -2 -68 0 -68 11 0 24 12 28 75 25 45 -2 60 -7 60 -18z
m213 -2 c3 -16 -5 -18 -62 -18 -36 0 -68 5 -71 10 -13 22 9 31 68 28 50 -2 62
-6 65 -20z m220 0 c3 -16 -5 -18 -67 -18 -53 0 -71 3 -71 13 0 24 13 28 74 25
49 -2 61 -7 64 -20z m217 2 c0 -12 -15 -16 -67 -18 -53 -2 -68 0 -68 11 0 24
12 28 75 25 45 -2 60 -7 60 -18z m213 -2 c3 -16 -5 -18 -62 -18 -36 0 -68 5
-71 10 -13 22 9 31 68 28 50 -2 62 -6 65 -20z"/>
<path d="M2905 2269 c-90 -73 -91 -69 14 -69 l93 0 -8 32 c-7 34 -32 78 -43
78 -3 -1 -28 -19 -56 -41z"/>
<path d="M2555 1221 c-155 -70 -167 -284 -22 -378 l42 -28 346 -3 c309 -3 348
-1 363 13 14 14 16 44 16 196 0 105 -4 188 -10 200 -10 18 -25 19 -353 19
-309 0 -346 -2 -382 -19z m173 -126 c40 -47 22 -138 -33 -163 -79 -36 -155 14
-155 101 0 94 124 135 188 62z"/>
</g>
</svg>
